<svg xmlns="http://www.w3.org/2000/svg" xmlns:xlink="http://www.w3.org/1999/xlink" width="175" height = "35" zoomAndPan="magnify" viewBox="0 0 175 35" height="35" preserveAspectRatio="xMidYMid meet" version="1.0"><defs><g/></defs><g fill="#fe9e0d" fill-opacity="1"><g transform="translate(46.74068, 16.944671)"><g><path d="M 3.84375 0 L 2.765625 0 L 2.578125 -1.234375 L 1.265625 -1.234375 L 1.09375 0 L 0.109375 0 L 1.203125 -6.796875 L 2.765625 -6.796875 Z M 1.40625 -2.15625 L 2.4375 -2.15625 L 1.921875 -5.59375 Z M 1.40625 -2.15625 "/></g></g></g><g fill="#fe9e0d" fill-opacity="1"><g transform="translate(50.69434, 16.944671)"><g><path d="M 2 -3.796875 L 3.484375 -3.796875 L 3.484375 -1.625 C 3.484375 -1.082031 3.347656 -0.660156 3.078125 -0.359375 C 2.816406 -0.0664062 2.421875 0.078125 1.890625 0.078125 C 1.367188 0.078125 0.972656 -0.0664062 0.703125 -0.359375 C 0.429688 -0.660156 0.296875 -1.082031 0.296875 -1.625 L 0.296875 -5.171875 C 0.296875 -5.722656 0.429688 -6.144531 0.703125 -6.4375 C 0.972656 -6.726562 1.367188 -6.875 1.890625 -6.875 C 2.421875 -6.875 2.816406 -6.726562 3.078125 -6.4375 C 3.347656 -6.144531 3.484375 -5.722656 3.484375 -5.171875 L 3.484375 -4.515625 L 2.484375 -4.515625 L 2.484375 -5.234375 C 2.484375 -5.484375 2.429688 -5.65625 2.328125 -5.75 C 2.222656 -5.851562 2.085938 -5.90625 1.921875 -5.90625 C 1.753906 -5.90625 1.617188 -5.851562 1.515625 -5.75 C 1.421875 -5.65625 1.375 -5.484375 1.375 -5.234375 L 1.375 -1.5625 C 1.375 -1.320312 1.421875 -1.148438 1.515625 -1.046875 C 1.617188 -0.953125 1.753906 -0.90625 1.921875 -0.90625 C 2.085938 -0.90625 2.222656 -0.953125 2.328125 -1.046875 C 2.429688 -1.148438 2.484375 -1.320312 2.484375 -1.5625 L 2.484375 -2.8125 L 2 -2.8125 Z M 2 -3.796875 "/></g></g></g><g fill="#fe9e0d" fill-opacity="1"><g transform="translate(54.482859, 16.944671)"><g><path d="M 2.625 0 C 2.613281 -0.0390625 2.597656 -0.0820312 2.578125 -0.125 C 2.566406 -0.164062 2.554688 -0.210938 2.546875 -0.265625 C 2.535156 -0.328125 2.53125 -0.398438 2.53125 -0.484375 C 2.53125 -0.578125 2.53125 -0.691406 2.53125 -0.828125 L 2.53125 -1.90625 C 2.53125 -2.21875 2.472656 -2.4375 2.359375 -2.5625 C 2.253906 -2.695312 2.078125 -2.765625 1.828125 -2.765625 L 1.453125 -2.765625 L 1.453125 0 L 0.390625 0 L 0.390625 -6.796875 L 2 -6.796875 C 2.5625 -6.796875 2.96875 -6.664062 3.21875 -6.40625 C 3.46875 -6.15625 3.59375 -5.765625 3.59375 -5.234375 L 3.59375 -4.703125 C 3.59375 -4.003906 3.359375 -3.546875 2.890625 -3.328125 C 3.160156 -3.210938 3.34375 -3.03125 3.4375 -2.78125 C 3.539062 -2.53125 3.59375 -2.226562 3.59375 -1.875 L 3.59375 -0.828125 C 3.59375 -0.660156 3.597656 -0.507812 3.609375 -0.375 C 3.628906 -0.25 3.664062 -0.125 3.71875 0 Z M 1.453125 -5.828125 L 1.453125 -3.734375 L 1.875 -3.734375 C 2.070312 -3.734375 2.226562 -3.785156 2.34375 -3.890625 C 2.457031 -3.992188 2.515625 -4.179688 2.515625 -4.453125 L 2.515625 -5.125 C 2.515625 -5.375 2.46875 -5.550781 2.375 -5.65625 C 2.289062 -5.769531 2.15625 -5.828125 1.96875 -5.828125 Z M 1.453125 -5.828125 "/></g></g></g><g fill="#fe9e0d" fill-opacity="1"><g transform="translate(58.387948, 16.944671)"><g><path d="M 0.390625 -6.796875 L 1.453125 -6.796875 L 1.453125 0 L 0.390625 0 Z M 0.390625 -6.796875 "/></g></g></g><g fill="#fe9e0d" fill-opacity="1"><g transform="translate(60.233637, 16.944671)"><g><path d="M 2.65625 -1.96875 L 3.375 -6.796875 L 4.875 -6.796875 L 4.875 0 L 3.859375 0 L 3.859375 -4.875 L 3.125 0 L 2.109375 0 L 1.3125 -4.8125 L 1.3125 0 L 0.375 0 L 0.375 -6.796875 L 1.859375 -6.796875 Z M 2.65625 -1.96875 "/></g></g></g><g fill="#fe9e0d" fill-opacity="1"><g transform="translate(65.488992, 16.944671)"><g><path d="M 3.84375 0 L 2.765625 0 L 2.578125 -1.234375 L 1.265625 -1.234375 L 1.09375 0 L 0.109375 0 L 1.203125 -6.796875 L 2.765625 -6.796875 Z M 1.40625 -2.15625 L 2.4375 -2.15625 L 1.921875 -5.59375 Z M 1.40625 -2.15625 "/></g></g></g><g fill="#fe9e0d" fill-opacity="1"><g transform="translate(69.442652, 16.944671)"><g><path d="M 0.078125 -6.796875 L 3.375 -6.796875 L 3.375 -5.828125 L 2.265625 -5.828125 L 2.265625 0 L 1.203125 0 L 1.203125 -5.828125 L 0.078125 -5.828125 Z M 0.078125 -6.796875 "/></g></g></g><g fill="#fe9e0d" fill-opacity="1"><g transform="translate(72.90089, 16.944671)"><g><path d="M 1.453125 -3.9375 L 2.921875 -3.9375 L 2.921875 -2.96875 L 1.453125 -2.96875 L 1.453125 -0.96875 L 3.296875 -0.96875 L 3.296875 0 L 0.390625 0 L 0.390625 -6.796875 L 3.296875 -6.796875 L 3.296875 -5.828125 L 1.453125 -5.828125 Z M 1.453125 -3.9375 "/></g></g></g><g fill="#fe9e0d" fill-opacity="1"><g transform="translate(76.475698, 16.944671)"><g/></g></g><g fill="#63a800" fill-opacity="1"><g transform="translate(77.981574, 16.944671)"><g><path d="M 3.84375 0 L 2.765625 0 L 2.578125 -1.234375 L 1.265625 -1.234375 L 1.09375 0 L 0.109375 0 L 1.203125 -6.796875 L 2.765625 -6.796875 Z M 1.40625 -2.15625 L 2.4375 -2.15625 L 1.921875 -5.59375 Z M 1.40625 -2.15625 "/></g></g></g><g fill="#63a800" fill-opacity="1"><g transform="translate(81.935234, 16.944671)"><g><path d="M 0.390625 -6.796875 L 1.453125 -6.796875 L 1.453125 0 L 0.390625 0 Z M 0.390625 -6.796875 "/></g></g></g></svg>